<svg width="26" height="24" viewBox="0 0 26 24" fill="none" xmlns="http://www.w3.org/2000/svg">
<path fill-rule="evenodd" clip-rule="evenodd" d="M1 1.4624C1.55228 1.4624 2 1.91012 2 2.4624V7.4624H7C7.55229 7.4624 8 7.91012 8 8.4624C8 9.01469 7.55229 9.4624 7 9.4624H1C0.447715 9.4624 0 9.01469 0 8.4624V2.4624C0 1.91012 0.447715 1.4624 1 1.4624Z" fill="white"/>
<path fill-rule="evenodd" clip-rule="evenodd" d="M10.6867 0.231299C13.0147 -0.232518 15.428 0.00455054 17.6213 0.912514C19.8146 1.82048 21.6893 3.35854 23.0083 5.33215C24.3273 7.30575 25.0313 9.62621 25.0313 12C25.0313 14.3738 24.3273 16.6943 23.0083 18.6679C21.6893 20.6415 19.8146 22.1795 17.6213 23.0875C15.428 23.9955 13.0147 24.2325 10.6867 23.7687C8.35862 23.3049 6.22045 22.161 4.54261 20.4818C4.15224 20.0911 4.1525 19.458 4.54318 19.0676C4.93387 18.6772 5.56703 18.6775 5.9574 19.0682C7.3556 20.4675 9.13741 21.4207 11.0774 21.8073C13.0175 22.1938 15.0286 21.9962 16.8563 21.2396C18.684 20.4829 20.2463 19.2012 21.3455 17.5566C22.4447 15.9119 23.0313 13.9782 23.0313 12C23.0313 10.0218 22.4447 8.08812 21.3455 6.44346C20.2463 4.79879 18.684 3.51707 16.8563 2.76043C15.0286 2.00379 13.0175 1.80624 11.0774 2.19275C9.13741 2.57926 7.3556 3.53248 5.9574 4.93182L1.70606 9.17065C1.31497 9.5606 0.681801 9.55967 0.291853 9.16857C-0.0980962 8.77747 -0.0971636 8.14431 0.293935 7.75436L4.54261 3.51819C4.54239 3.5184 4.54282 3.51798 4.54261 3.51819C6.22035 1.83932 8.35892 0.695057 10.6867 0.231299Z" fill="white"/>
<path fill-rule="evenodd" clip-rule="evenodd" d="M9.3584 9.24675C9.3584 7.45413 11.3563 6.38489 12.8478 7.37926L16.8266 10.0318C18.1592 10.9202 18.1592 12.8784 16.8266 13.7668L12.8478 16.4193C11.3563 17.4136 9.3584 16.3444 9.3584 14.5518V9.24675ZM11.7384 9.04336C11.576 8.93507 11.3584 9.05152 11.3584 9.24675V14.5518C11.3584 14.747 11.576 14.8635 11.7384 14.7552L15.7172 12.1027C15.8623 12.0059 15.8623 11.7926 15.7172 11.6959L11.7384 9.04336Z" fill="white"/>
</svg>
