<svg width="32" height="15" viewBox="0 0 32 15" fill="none" xmlns="http://www.w3.org/2000/svg">
<g clip-path="url(#clip0_7949_6262)">
<path d="M30.2769 14.7228H0.384615C0.169231 14.7228 0 14.5536 0 14.3382C0 14.1228 0.169231 13.9536 0.384615 13.9536H30.2769C30.4923 13.9536 30.6615 14.1228 30.6615 14.3382C30.6615 14.5536 30.4923 14.7228 30.2769 14.7228Z" fill="#F7F7F7"/>
<path d="M30.5846 1.04621L30.1077 0.569291C29.3538 -0.184555 28.1308 -0.184555 27.3769 0.569291L25.3615 2.58468C23.0154 1.37698 19.4154 0.884675 15.3769 0.884675C8.29998 0.884675 2.56152 2.38468 2.56152 6.63852C2.56152 10.8924 8.29998 14.3385 15.3769 14.3385C22.4538 14.3385 28.1923 10.8924 28.1923 6.63852C28.1923 6.49237 28.1692 6.35391 28.1538 6.20775L30.5846 3.77698C31.3384 3.02314 31.3384 1.80006 30.5846 1.04621ZM15.3769 13.3154C9.49229 13.3154 4.51537 10.5001 4.51537 7.1616C4.51537 5.53083 5.92306 2.80006 15.3769 2.80006C24.8308 2.80006 26.2384 5.53083 26.2384 7.1616C26.2384 10.4924 21.2692 13.3154 15.3769 13.3154Z" fill="#F7F7F7"/>
</g>
<defs>
<clipPath id="clip0_7949_6262">
<rect width="31.1538" height="14.7231" rx="7.36154" fill="white"/>
</clipPath>
</defs>
</svg>
