<svg width="29" height="29" viewBox="0 0 29 29" fill="none" xmlns="http://www.w3.org/2000/svg">
<g clip-path="url(#clip0_7949_6310)">
<path d="M4.00769 28.1462C1.72308 28.1462 0 26.4154 0 24.1231V4.09231C0 1.97692 1.29231 0.423077 3.36923 0.0384615C3.58462 0 3.8 0 4.00769 0H24.1385C26.4231 0 28.1462 1.71538 28.1462 3.99231C28.1462 10.7154 28.1462 17.4385 28.1462 24.1615C28.1462 26.4385 26.4231 28.1538 24.1385 28.1538H14.0692H4L4.00769 28.1462ZM1.52308 24.0231C1.52308 25.6 2.55385 26.6231 4.13846 26.6231H9.03846V19.1077H1.52308V24.0231ZM23.9846 26.6231C25.6154 26.6231 26.6308 25.6154 26.6308 23.9923V19.1231H19.1154V26.6231H23.9846ZM17.5538 26.6V19.1154H10.6V26.6H17.5538ZM17.5538 17.5615V10.6077H10.6V17.5615H17.5538ZM26.6 17.5462V10.5923H19.1154V17.5462H26.6ZM9.02308 17.5462V10.5923H1.53846V17.5462H9.02308ZM26.6308 9.03846C26.6308 9.03846 26.6308 5.24615 26.6308 4.12308C26.6308 2.54615 25.6 1.52308 24.0154 1.52308H19.1154V9.03846H26.6231H26.6308ZM9.03846 9.02308V1.52308H4.16923C2.53846 1.52308 1.52308 2.53077 1.52308 4.15385V9.02308H9.03846ZM17.5538 9.02308V1.53846H10.6V9.02308H17.5538Z" fill="#F7F7F7"/>
<path d="M0.230713 14.0771C0.230713 10.7463 0.230713 7.42326 0.230713 4.0925C0.230713 2.0925 1.4461 0.630957 3.41533 0.269419C3.60764 0.230957 3.81533 0.230957 4.00764 0.230957C10.7153 0.230957 17.4307 0.230957 24.1384 0.230957C26.2769 0.230957 27.9153 1.86173 27.9153 3.9925C27.9153 10.7156 27.9153 17.4386 27.9153 24.1617C27.9153 26.2925 26.2769 27.9233 24.1384 27.9233C17.4307 27.9233 10.7153 27.9233 4.00764 27.9233C1.85379 27.9233 0.230713 26.2925 0.230713 24.131C0.230713 20.7771 0.230713 17.431 0.230713 14.0771ZM9.26917 1.2925C9.1461 1.2925 9.0384 1.2925 8.93071 1.2925C7.3461 1.2925 5.76148 1.2925 4.16917 1.2925C2.42302 1.2925 1.29225 2.41557 1.29225 4.15403C1.29225 5.73865 1.29225 7.32326 1.29225 8.91557V9.26173H9.26917V1.2925ZM26.8615 9.26942C26.8615 9.14634 26.8615 9.04634 26.8615 8.94634C26.8615 7.33865 26.8615 5.73096 26.8615 4.12326C26.8615 2.42326 25.723 1.2925 24.0153 1.2925C22.4153 1.2925 20.823 1.2925 19.223 1.2925C19.1153 1.2925 19.0076 1.2925 18.8846 1.2925V9.26942H26.8538H26.8615ZM1.29225 18.8771C1.29225 19.0002 1.29225 19.1002 1.29225 19.2002C1.29225 20.8079 1.29225 22.4156 1.29225 24.0233C1.29225 25.7156 2.43071 26.854 4.13071 26.854C5.73071 26.854 7.32302 26.854 8.92302 26.854C9.03071 26.854 9.1384 26.854 9.26148 26.854V18.8771H1.29225ZM18.8846 26.854C19.0076 26.854 19.1153 26.854 19.223 26.854C20.8076 26.854 22.3923 26.854 23.9769 26.854C25.723 26.854 26.8538 25.731 26.8538 23.9925C26.8538 22.4079 26.8538 20.8233 26.8538 19.2386V18.8925H18.8769V26.854H18.8846ZM10.3692 1.30788V9.25403H17.7846V1.30788H10.3692ZM1.30764 17.7771H9.25379V10.3617H1.30764V17.7771ZM18.8846 17.7771H26.8307V10.3617H18.8846V17.7771ZM10.3692 18.8848V26.831H17.7846V18.8848H10.3692ZM17.7846 17.7925V10.3771H10.3692V17.7925H17.7846Z" fill="#F7F7F7"/>
</g>
<defs>
<clipPath id="clip0_7949_6310">
<rect width="28.1538" height="28.1538" fill="white"/>
</clipPath>
</defs>
</svg>
