<svg width="32" height="31" viewBox="0 0 32 31" fill="none" xmlns="http://www.w3.org/2000/svg">
<g clip-path="url(#clip0_7949_6284)">
<path d="M30.5846 9.20783L30.1077 8.73091C29.3538 7.97707 28.1308 7.97707 27.3769 8.73091L25.3615 10.7463C23.0154 9.5386 19.4154 9.0463 15.3769 9.0463C8.29998 9.0463 2.56152 10.5463 2.56152 14.8001C2.56152 19.054 8.29998 22.5001 15.3769 22.5001C22.4538 22.5001 28.1923 19.054 28.1923 14.8001C28.1923 14.654 28.1692 14.5155 28.1538 14.3694L30.5846 11.9386C31.3384 11.1848 31.3384 9.96168 30.5846 9.20783ZM15.3769 21.4848C9.49229 21.4848 4.51537 18.6694 4.51537 15.3309C4.51537 13.7001 5.92306 10.9694 15.3769 10.9694C24.8308 10.9694 26.2384 13.7001 26.2384 15.3309C26.2384 18.6617 21.2692 21.4848 15.3769 21.4848Z" fill="#F7F7F7"/>
<path d="M15.3307 30.6615C15.1153 30.6615 14.946 30.4923 14.946 30.2769V0.384615C14.946 0.169231 15.1153 0 15.3307 0C15.546 0 15.7153 0.169231 15.7153 0.384615V30.2769C15.7153 30.4923 15.546 30.6615 15.3307 30.6615Z" fill="#F7F7F7"/>
<path d="M30.2769 15.7155H0.384615C0.169231 15.7155 0 15.5463 0 15.3309C0 15.1155 0.169231 14.9463 0.384615 14.9463H30.2769C30.4923 14.9463 30.6615 15.1155 30.6615 15.3309C30.6615 15.5463 30.4923 15.7155 30.2769 15.7155Z" fill="#F7F7F7"/>
</g>
<defs>
<clipPath id="clip0_7949_6284">
<rect width="31.1538" height="30.6615" rx="8" fill="white"/>
</clipPath>
</defs>
</svg>
