<svg width="32" height="26" viewBox="0 0 32 26" fill="none" xmlns="http://www.w3.org/2000/svg">
<g clip-path="url(#clip0_7949_6216)">
<path d="M29.1845 12.8077C29.0537 12.8077 28.923 12.7462 28.846 12.6462C28.7614 12.5462 28.7307 12.4077 28.7614 12.2769C29.6691 8.37692 29.4614 5.55385 28.1307 3.89231C26.9614 2.42308 25.223 2.30769 24.7153 2.30769C24.6153 2.30769 24.5537 2.30769 24.546 2.30769C24.1922 2.30769 23.8999 2.29231 23.5999 2.29231C9.52296 2.29231 2.13835 12.5231 2.06911 12.6231C1.9845 12.7385 1.85373 12.8077 1.71527 12.8077H1.13065C0.969115 12.8077 0.815269 12.7154 0.738346 12.5692C0.661423 12.4231 0.676807 12.2462 0.776807 12.1154C8.7845 1.17692 19.2845 0 23.423 0C24.8153 0 25.623 0.123077 25.6614 0.130769C27.646 0.353846 29.123 1.20769 30.0307 2.66154C32.2999 6.26923 30.2383 12.2692 30.1537 12.5231C30.0922 12.7 29.9307 12.8154 29.7383 12.8154H29.1845V12.8077Z" fill="#F7F7F7"/>
<path d="M29.1847 12.731C29.077 12.731 28.9693 12.6848 28.9001 12.5925C28.8308 12.5079 28.8077 12.3925 28.8308 12.2848C29.7462 8.36176 29.5308 5.5233 28.1924 3.83099C27.0077 2.33869 25.2308 2.21561 24.7231 2.21561C24.6154 2.21561 24.5539 2.21561 24.5462 2.21561C24.2001 2.20792 23.9077 2.20023 23.6077 2.20023C9.46929 2.21561 2.07698 12.4771 2.00775 12.5771C1.93852 12.6695 1.83082 12.731 1.71544 12.731H1.13082C0.992363 12.731 0.869286 12.6541 0.807747 12.531C0.746209 12.4079 0.761594 12.2618 0.838517 12.1541C8.83082 1.25407 19.2924 0.0771484 23.4231 0.0771484C24.8001 0.0771484 25.6154 0.200225 25.6462 0.207918C27.6077 0.430995 29.0616 1.26946 29.9616 2.70023C32.2077 6.26946 30.1616 12.2387 30.077 12.4925C30.0231 12.6387 29.8924 12.731 29.7385 12.731H29.1847Z" fill="#F7F7F7"/>
<path d="M29.1847 12.4459C29.1847 12.4459 29.1385 12.4383 29.1232 12.4152C29.1078 12.3998 29.1001 12.369 29.1078 12.3536C30.0385 8.34594 29.8078 5.42287 28.4078 3.66133C27.1385 2.06902 25.2616 1.94594 24.7155 1.94594C24.5847 1.94594 24.5155 1.94594 24.5078 1.94594C24.1924 1.93825 23.8924 1.93056 23.5924 1.93056C9.31546 1.93825 1.84623 12.3075 1.777 12.4152L1.13085 12.4459C1.13085 12.4459 1.077 12.4306 1.06162 12.4075C1.04623 12.3844 1.05392 12.3536 1.06162 12.3306C8.977 1.52287 19.3385 0.361328 23.4232 0.361328C24.777 0.361328 25.6001 0.484405 25.6078 0.484405C27.4924 0.69979 28.877 1.4921 29.7308 2.84594C31.9001 6.30748 29.8385 12.3383 29.8155 12.3998C29.8078 12.4306 29.777 12.4536 29.7462 12.4536H29.1924L29.1847 12.4459Z" fill="#F7F7F7"/>
<path d="M29.1847 12.3693H29.7386C29.7386 12.3693 33.5386 1.46158 25.5924 0.561584C25.5924 0.561584 11.3847 -1.62303 1.13086 12.377H1.71547C1.71547 12.377 9.40778 1.42312 24.5078 1.86928C24.5078 1.86928 31.777 1.23082 29.1847 12.3693Z" fill="#F7F7F7"/>
<path d="M6.77689 25.8613C3.33074 25.8613 1.26151 25.4075 0.453816 24.4613C-0.0384912 23.8844 0.0999703 23.1305 0.815355 22.4844C0.876893 22.4075 0.946124 22.3844 1.04612 22.3613L1.55382 22.269H1.63074C1.72305 22.269 1.82305 22.2998 1.89997 22.3613L2.33074 22.6998C2.46151 22.8075 2.52305 22.9767 2.48459 23.1459C2.46151 23.2382 2.46151 23.3075 2.59997 23.4229C3.14612 23.869 4.79997 24.1305 7.02305 24.1305C7.59228 24.1305 7.99997 24.1152 8.08459 24.1075C22.6461 23.669 28.4538 21.6305 28.5077 21.6152L29.023 21.4459C29.0692 21.4305 29.1154 21.4229 29.1615 21.4229C29.323 21.4229 29.4692 21.5075 29.5461 21.6536L29.623 21.7921C29.6846 21.8998 29.6923 22.0305 29.6461 22.1459C29.6 22.2613 29.5154 22.3536 29.4 22.3998C21.6538 25.5229 7.47689 25.8459 7.33843 25.8459H6.77689V25.8613Z" fill="#F7F7F7"/>
<path d="M6.77703 25.7849C3.35395 25.7849 1.3001 25.3387 0.515487 24.4156C0.0539483 23.8772 0.19241 23.1618 0.869333 22.5464C0.923179 22.4849 0.977025 22.4618 1.06164 22.4464L1.56933 22.3541C1.56933 22.3541 1.61549 22.3541 1.63856 22.3541C1.71549 22.3541 1.79241 22.3772 1.86164 22.431L2.29241 22.7695C2.4001 22.8541 2.45395 23.0002 2.42318 23.1387C2.39241 23.2695 2.40779 23.3695 2.56164 23.4925C3.11549 23.9464 4.79241 24.2233 7.03856 24.2233C7.60779 24.2233 8.02318 24.2079 8.1001 24.2002C22.5693 23.7695 28.4924 21.7233 28.5463 21.7002L29.054 21.531C29.054 21.531 29.1309 21.5156 29.1693 21.5156C29.3001 21.5156 29.4232 21.5849 29.4847 21.7079L29.5616 21.8541C29.6078 21.9464 29.6155 22.0541 29.5847 22.1464C29.5463 22.2464 29.477 22.3156 29.3847 22.3541C21.6309 25.4772 7.48472 25.8002 7.34626 25.8002H6.78472L6.77703 25.7849Z" fill="#F7F7F7"/>
<path d="M6.7769 25.5079C3.48459 25.5079 1.45382 25.0771 0.730744 24.2386C0.376898 23.8233 0.492282 23.2848 1.06151 22.7694L1.62305 22.6386L2.12305 22.9925C2.12305 22.9925 2.15382 23.0386 2.15382 23.0694C2.09228 23.3232 2.16921 23.5309 2.39228 23.7079C3.00767 24.2079 4.69997 24.5002 7.04613 24.5002C7.62305 24.5002 8.03844 24.4848 8.12305 24.4771C22.7461 24.0386 28.6 21.9771 28.6538 21.954L29.1538 21.7925C29.1538 21.7925 29.1692 21.7925 29.1769 21.7925C29.2077 21.7925 29.2307 21.8079 29.2461 21.8309L29.323 21.9771C29.323 21.9771 29.3384 22.0156 29.323 22.0386C29.323 22.0617 29.3 22.0771 29.2769 22.0848C21.5384 25.2079 7.48459 25.5079 7.34613 25.5079H6.78459H6.7769Z" fill="#F7F7F7"/>
<path d="M29.1614 21.8617L28.6691 22.0232C28.6153 22.0463 22.746 24.1079 8.13065 24.5463C8.12296 24.5463 7.68449 24.5694 7.03834 24.5694C4.6768 24.5694 2.96142 24.2771 2.33834 23.7617C2.09219 23.5617 2.00757 23.3309 2.0768 23.0463L1.64603 22.7079L1.13834 22.8002C1.13834 22.8002 0.246034 23.5309 0.79988 24.1771C1.50757 25.0002 3.52296 25.4232 6.79219 25.4232H7.35373C7.94603 25.4155 21.7076 25.0463 29.2537 22.0002L29.1768 21.854L29.1614 21.8617Z" fill="#F7F7F7"/>
<path d="M30.1615 17.5769H0.461538C0.207692 17.5769 0 17.3692 0 17.1153C0 16.8615 0.207692 16.6538 0.461538 16.6538H30.1615C30.4154 16.6538 30.6231 16.8615 30.6231 17.1153C30.6231 17.3692 30.4154 17.5769 30.1615 17.5769Z" fill="#F7F7F7"/>
<path d="M30.1615 17.5002H0.46152C0.246135 17.5002 0.0769043 17.331 0.0769043 17.1156C0.0769043 16.9002 0.246135 16.731 0.46152 16.731H30.1615C30.3769 16.731 30.5461 16.9002 30.5461 17.1156C30.5461 17.331 30.3769 17.5002 30.1615 17.5002Z" fill="#F7F7F7"/>
</g>
<defs>
<clipPath id="clip0_7949_6216">
<rect width="31.0923" height="25.8615" rx="8" fill="white"/>
</clipPath>
</defs>
</svg>
