<svg width="32" height="32" viewBox="0 0 32 32" fill="none" xmlns="http://www.w3.org/2000/svg">
<g clip-path="url(#clip0_7949_6188)">
<path d="M8.16942 31.1846C5.80018 31.1846 3.73095 30.4692 2.22326 28.9615C-2.2152 24.523 0.184801 15.1692 7.6848 7.66919C11.1925 4.1615 15.2848 1.63842 19.2079 0.561498C23.3233 -0.569271 26.7925 0.0153446 28.9771 2.20765C31.1617 4.39227 31.7463 7.8615 30.6233 11.9769C29.5463 15.9 27.0233 19.9923 23.5156 23.5C18.5617 28.4538 12.7925 31.1846 8.16942 31.1846ZM23.1002 1.94611C18.9925 1.94611 13.5463 4.53073 9.04634 9.03073C2.53095 15.5384 0.0309545 24.0461 3.5848 27.6C7.13865 31.1538 15.6386 28.6461 22.154 22.1384C25.431 18.8615 27.7771 15.0769 28.7694 11.4692C29.7079 8.05381 29.3002 5.24611 27.6233 3.56919C26.5233 2.46919 24.9463 1.95381 23.1079 1.95381L23.1002 1.94611Z" fill="#F7F7F7"/>
<path d="M10.1385 23.2384C11.3535 23.2384 12.3385 22.2534 12.3385 21.0384C12.3385 19.8234 11.3535 18.8384 10.1385 18.8384C8.92345 18.8384 7.93848 19.8234 7.93848 21.0384C7.93848 22.2534 8.92345 23.2384 10.1385 23.2384Z" fill="#F7F7F7"/>
<path d="M15.5999 13.2691C16.8149 13.2691 17.7999 12.2842 17.7999 11.0691C17.7999 9.85411 16.8149 8.86914 15.5999 8.86914C14.3849 8.86914 13.3999 9.85411 13.3999 11.0691C13.3999 12.2842 14.3849 13.2691 15.5999 13.2691Z" fill="#F7F7F7"/>
<path d="M22.2847 14.5152C23.4997 14.5152 24.4847 13.5303 24.4847 12.3152C24.4847 11.1002 23.4997 10.1152 22.2847 10.1152C21.0697 10.1152 20.0847 11.1002 20.0847 12.3152C20.0847 13.5303 21.0697 14.5152 22.2847 14.5152Z" fill="#F7F7F7"/>
</g>
<defs>
<clipPath id="clip0_7949_6188">
<rect width="31.1846" height="31.1846" rx="8" fill="white"/>
</clipPath>
</defs>
</svg>
