<svg width="24" height="24" viewBox="0 0 24 24" fill="none" xmlns="http://www.w3.org/2000/svg">
<path d="M18.3001 6.7501C18.88 6.7501 19.3501 6.28 19.3501 5.7001C19.3501 5.1202 18.88 4.6501 18.3001 4.6501L10.6692 4.6501C10.3061 4.02241 9.62739 3.6001 8.8501 3.6001C8.0728 3.6001 7.39414 4.02241 7.03104 4.6501L5.7001 4.6501C5.1202 4.6501 4.6501 5.1202 4.6501 5.7001C4.6501 6.28 5.1202 6.7501 5.7001 6.7501L7.03104 6.7501C7.39414 7.37779 8.0728 7.8001 8.8501 7.8001C9.62739 7.8001 10.3061 7.37779 10.6692 6.7501L18.3001 6.7501Z" fill="white"/>
<path d="M18.3001 13.0501C18.88 13.0501 19.3501 12.58 19.3501 12.0001C19.3501 11.4202 18.88 10.9501 18.3001 10.9501L16.9692 10.9501C16.6061 10.3224 15.9274 9.9001 15.1501 9.9001C14.3728 9.9001 13.6941 10.3224 13.331 10.9501L5.7001 10.9501C5.1202 10.9501 4.6501 11.4202 4.6501 12.0001C4.6501 12.58 5.1202 13.0501 5.7001 13.0501L13.331 13.0501C13.6941 13.6778 14.3728 14.1001 15.1501 14.1001C15.9274 14.1001 16.6061 13.6778 16.9692 13.0501L18.3001 13.0501Z" fill="white"/>
<path d="M19.3501 18.3001C19.3501 18.88 18.88 19.3501 18.3001 19.3501L10.6692 19.3501C10.3061 19.9778 9.62739 20.4001 8.8501 20.4001C8.0728 20.4001 7.39414 19.9778 7.03104 19.3501L5.7001 19.3501C5.1202 19.3501 4.6501 18.88 4.6501 18.3001C4.6501 17.7202 5.1202 17.2501 5.7001 17.2501L7.03104 17.2501C7.39414 16.6224 8.0728 16.2001 8.8501 16.2001C9.62739 16.2001 10.3061 16.6224 10.6692 17.2501L18.3001 17.2501C18.88 17.2501 19.3501 17.7202 19.3501 18.3001Z" fill="white"/>
</svg>
