<svg width="24" height="24" viewBox="0 0 24 24" fill="none" xmlns="http://www.w3.org/2000/svg">
<path d="M18.2999 12.0001L20.3999 12.0001M18.2999 12.0001C18.2999 10.8403 17.3597 9.9001 16.1999 9.9001C15.0401 9.9001 14.0999 10.8403 14.0999 12.0001M18.2999 12.0001C18.2999 13.1599 17.3597 14.1001 16.1999 14.1001C15.0401 14.1001 14.0999 13.1599 14.0999 12.0001M5.6999 5.7001C5.6999 6.85989 6.6401 7.8001 7.7999 7.8001C8.9597 7.8001 9.8999 6.8599 9.8999 5.7001M5.6999 5.7001C5.6999 4.5403 6.6401 3.6001 7.7999 3.6001C8.9597 3.6001 9.8999 4.5403 9.8999 5.7001M5.6999 5.7001L3.5999 5.7001M9.8999 5.7001L20.3999 5.7001M14.0999 12.0001L3.5999 12.0001M5.6999 18.3001C5.6999 19.4599 6.6401 20.4001 7.7999 20.4001C8.9597 20.4001 9.8999 19.4599 9.8999 18.3001M5.6999 18.3001C5.6999 17.1403 6.6401 16.2001 7.7999 16.2001C8.9597 16.2001 9.8999 17.1403 9.8999 18.3001M5.6999 18.3001L3.5999 18.3001M9.8999 18.3001L20.3999 18.3001" stroke="white" stroke-width="1.5" stroke-linecap="round" stroke-linejoin="round"/>
</svg>
