<svg width="24" height="24" viewBox="0 0 24 24" fill="none" xmlns="http://www.w3.org/2000/svg">
<path fill-rule="evenodd" clip-rule="evenodd" d="M12.0001 20.4001C16.6393 20.4001 20.4001 16.6393 20.4001 12.0001C20.4001 7.36091 16.6393 3.6001 12.0001 3.6001C7.36091 3.6001 3.6001 7.36091 3.6001 12.0001C3.6001 16.6393 7.36091 20.4001 12.0001 20.4001ZM15.8926 10.6426C16.3026 10.2325 16.3026 9.56769 15.8926 9.15764C15.4825 8.74758 14.8177 8.74758 14.4076 9.15764L10.9501 12.6152L9.59256 11.2576C9.18251 10.8476 8.51769 10.8476 8.10764 11.2576C7.69759 11.6677 7.69759 12.3325 8.10764 12.7426L10.2076 14.8426C10.6177 15.2526 11.2825 15.2526 11.6926 14.8426L15.8926 10.6426Z" fill="white"/>
</svg>
