<svg width="32" height="32" viewBox="0 0 32 32" fill="none" xmlns="http://www.w3.org/2000/svg">
<path d="M24.3998 8.9998C25.173 8.9998 25.7998 8.373 25.7998 7.5998C25.7998 6.82661 25.173 6.1998 24.3998 6.1998L14.2252 6.1998C13.7411 5.36288 12.8362 4.7998 11.7998 4.7998C10.7634 4.7998 9.85853 5.36288 9.3744 6.1998L7.59981 6.1998C6.8266 6.1998 6.1998 6.82661 6.1998 7.5998C6.1998 8.373 6.8266 8.9998 7.59981 8.9998L9.3744 8.9998C9.85853 9.83673 10.7634 10.3998 11.7998 10.3998C12.8362 10.3998 13.7411 9.83673 14.2252 8.9998L24.3998 8.9998Z" fill="white"/>
<path d="M24.3998 17.3998C25.173 17.3998 25.7998 16.773 25.7998 15.9998C25.7998 15.2266 25.173 14.5998 24.3998 14.5998L22.6252 14.5998C22.1411 13.7629 21.2362 13.1998 20.1998 13.1998C19.1634 13.1998 18.2585 13.7629 17.7744 14.5998L7.59981 14.5998C6.8266 14.5998 6.1998 15.2266 6.1998 15.9998C6.1998 16.773 6.8266 17.3998 7.59981 17.3998L17.7744 17.3998C18.2585 18.2367 19.1634 18.7998 20.1998 18.7998C21.2362 18.7998 22.1411 18.2367 22.6252 17.3998L24.3998 17.3998Z" fill="white"/>
<path d="M25.7998 24.3998C25.7998 25.173 25.173 25.7998 24.3998 25.7998L14.2252 25.7998C13.7411 26.6367 12.8362 27.1998 11.7998 27.1998C10.7634 27.1998 9.85853 26.6367 9.37439 25.7998L7.5998 25.7998C6.8266 25.7998 6.1998 25.173 6.1998 24.3998C6.1998 23.6266 6.8266 22.9998 7.59981 22.9998L9.37439 22.9998C9.85853 22.1629 10.7634 21.5998 11.7998 21.5998C12.8362 21.5998 13.7411 22.1629 14.2252 22.9998L24.3998 22.9998C25.173 22.9998 25.7998 23.6266 25.7998 24.3998Z" fill="white"/>
</svg>
