<svg width="40" height="40" viewBox="0 0 40 40" fill="none" xmlns="http://www.w3.org/2000/svg">
<path d="M25.7109 33.7384C25.6648 30.0076 25.0494 6.8922 17.434 4.14604C9.77249 1.3845 10.8417 18.5384 11.0494 21.1614C10.5571 21.2614 10.1648 21.5076 10.1648 21.8537C10.1648 22.2845 10.7109 22.6384 11.3956 22.6384C12.0802 22.6384 12.6263 22.2845 12.6263 21.8537C12.6263 21.446 12.1186 21.1307 11.4956 21.0922C10.3879 2.3922 17.3263 6.04604 17.3263 6.04604C23.6494 9.03066 23.9109 30.1768 23.9109 33.7384V35.5768C23.9109 35.8922 24.3186 36.1537 24.8109 36.1537C25.3033 36.1537 25.7109 35.8922 25.7109 35.5768V33.7384Z" fill="#F7F7F7"/>
</svg>
