<svg width="40" height="40" viewBox="0 0 40 40" fill="none" xmlns="http://www.w3.org/2000/svg">
<path d="M34.2463 22.1154C34.2463 29.8692 27.9617 36.1539 20.2079 36.1539C15.7694 36.1539 11.5925 34.0539 8.93863 30.4923C6.24632 26.8539 5.44632 22.1462 6.80017 17.8154C6.94632 17.2923 7.50017 16.9846 8.02324 17.1385C8.54632 17.2846 8.85401 17.8385 8.70017 18.3616C8.70017 18.3616 8.70017 18.3769 8.70017 18.3846C7.53094 22.1077 8.20786 26.1692 10.5232 29.3154C14.5002 34.6616 22.0617 35.7692 27.4079 31.7923C32.754 27.8154 33.8617 20.2539 29.8848 14.9077C27.6079 11.8462 24.0232 10.0462 20.2079 10.0462H15.1309L17.6925 12.6077C18.0925 12.9846 18.1079 13.6077 17.7309 14C17.354 14.4 16.7309 14.4154 16.3386 14.0385C16.3232 14.0231 16.3079 14.0154 16.3002 14L12.054 9.75386C11.9617 9.66155 11.8848 9.55386 11.8386 9.43078V9.4154C11.7463 9.18463 11.7463 8.93078 11.8386 8.70001V8.68463C11.8848 8.56155 11.9617 8.45386 12.054 8.36155L16.2925 4.1154C16.6925 3.73847 17.3156 3.76155 17.6848 4.15386C18.0463 4.53078 18.0463 5.13078 17.6848 5.5077L15.1232 8.06924H20.2002C27.954 8.07693 34.2309 14.3615 34.2386 22.1077L34.2463 22.1154ZM18.254 25.7C18.4771 25.7 18.6925 25.6462 18.8925 25.5539L23.9848 23.1231C24.7232 22.7769 25.0309 21.8923 24.6848 21.1539C24.5386 20.8462 24.2925 20.6 23.9848 20.4539L18.8925 18.0231C18.4309 17.8077 17.9002 17.8385 17.4694 18.1154C17.0386 18.3846 16.7771 18.8539 16.7771 19.3616V24.2231C16.7771 25.0385 17.4386 25.7 18.254 25.7077V25.7Z" fill="#F7F7F7"/>
</svg>
